<svg xmlns="http://www.w3.org/2000/svg" width="1080" height="1080" viewBox="0 0 1080 1080" font-family="Ubuntu">
<defs>
  <linearGradient id="bg" x1="0" y1="0" x2="1" y2="1">
    <stop offset="0" stop-color="#0e0f16"/><stop offset="0.55" stop-color="#14121d"/><stop offset="1" stop-color="#1c1220"/>
  </linearGradient>
  <linearGradient id="accent" x1="0" y1="0" x2="1" y2="1">
    <stop offset="0" stop-color="#f39662"/><stop offset="1" stop-color="#e3163c"/>
  </linearGradient>
  <radialGradient id="glow" cx="0.5" cy="0.5" r="0.5">
    <stop offset="0" stop-color="#e3163c" stop-opacity="0.42"/><stop offset="1" stop-color="#e3163c" stop-opacity="0"/>
  </radialGradient>
  <radialGradient id="glow2" cx="0.5" cy="0.5" r="0.5">
    <stop offset="0" stop-color="#f39662" stop-opacity="0.26"/><stop offset="1" stop-color="#f39662" stop-opacity="0"/>
  </radialGradient>

    <linearGradient id="onikeyCap" x1="0" y1="0" x2="0" y2="1">
      <stop offset="0" stop-color="#ff8f5e"/>
      <stop offset="1" stop-color="#d8123a"/>
    </linearGradient>
    <linearGradient id="onikeyHorn" x1="0" y1="0" x2="1" y2="1">
      <stop offset="0" stop-color="#f39662"/>
      <stop offset="1" stop-color="#e3163c"/>
    </linearGradient>
  </defs>
<rect width="1080" height="1080" fill="url(#bg)"/>
<ellipse cx="880" cy="120" rx="430" ry="360" fill="url(#glow)"/>
<ellipse cx="120" cy="1000" rx="420" ry="320" fill="url(#glow2)"/>
<g transform="translate(444,78) scale(4.0)">
  <!-- sừng -->
  <path d="M10.5 12.5 L6.5 1.8 L18.5 8.2 Z" fill="url(#onikeyHorn)"/>
  <path d="M37.5 12.5 L41.5 1.8 L29.5 8.2 Z" fill="url(#onikeyHorn)"/>
  <!-- thân phím -->
  <rect x="4.5" y="8" width="39" height="38" rx="9" fill="url(#onikeyCap)"/>
  <!-- mặt phím bắt sáng -->
  <rect x="8" y="11.5" width="32" height="27" rx="7" fill="#ffffff" fill-opacity="0.13"/>
  <!-- chữ O -->
  <ellipse cx="24" cy="26.5" rx="8.6" ry="9.8" fill="none" stroke="#ffffff" stroke-width="5.2"/>
</g>
<text x="540" y="372" font-size="92" font-weight="700" fill="#ffffff" text-anchor="middle" letter-spacing="-1">Onikey</text>
<text x="540" y="434" font-size="42" font-weight="500" fill="#e8eaf2" text-anchor="middle">Bộ gõ tiếng Việt cho Linux</text>
<text x="540" y="478" font-size="25" fill="#98a0b4" text-anchor="middle">Engine Rust · IBus &amp; Fcitx5 · Wayland &amp; X11</text>
<g transform="translate(325,528)">
  <rect x="0" y="0" width="430" height="330" rx="22" fill="#12141d" fill-opacity="0.94" stroke="#2b3145"/>
  <g transform="translate(28,26)">
    <circle cx="8" cy="8" r="6" fill="#ff5f57"/><circle cx="30" cy="8" r="6" fill="#febc2e"/><circle cx="52" cy="8" r="6" fill="#28c840"/>
  </g>
  <text x="30" y="112" font-size="21" fill="#6f778c">bạn gõ</text>
  <text x="30" y="160" font-size="38" font-weight="500" fill="#aab2c6" font-family="Ubuntu Mono, monospace">tieengs Vieejt</text>
  <line x1="30" y1="174" x2="330" y2="174" stroke="#7b8398" stroke-width="2" stroke-dasharray="5 4"/>
  <text x="30" y="238" font-size="21" fill="#6f778c">màn hình hiện</text>
  <text x="30" y="290" font-size="46" font-weight="700" fill="#ffffff">tiếng Việt</text>
  <rect x="254" y="254" width="4" height="44" fill="url(#accent)"/>
</g>
<text x="540" y="936" font-size="26" fill="#858da2" text-anchor="middle">Cài một lệnh — bấm Super+Space là gõ tiếng Việt.</text>
<text x="540" y="996" font-size="28" font-weight="500" fill="#f0a273" text-anchor="middle">github.com/Crust92/Onikey</text>
</svg>